<svg width="249" height="39" viewBox="0 0 249 39" fill="none" xmlns="http://www.w3.org/2000/svg">
<g clip-path="url(#clip0_8568_36)">
<mask id="mask0_8568_36" style="mask-type:luminance" maskUnits="userSpaceOnUse" x="0" y="-1" width="249" height="40">
<path d="M248.481 -0.00125122H0.880737V38.5153H248.481V-0.00125122Z" fill="white"/>
</mask>
<g mask="url(#mask0_8568_36)">
<path d="M135.308 19.068C137.856 19.068 139.619 17.8917 139.619 15.2322C139.619 12.5727 137.856 11.3963 135.308 11.3963H130.381V19.0651L135.308 19.068ZM127.804 9.29532H135.59C139.062 9.29532 142.199 10.9463 142.199 15.2279C142.199 19.4833 139.175 21.0519 135.646 21.0519H130.381V28.8929H127.805V9.29532H127.804Z" fill="white"/>
<path d="M148.185 27.4684C151.127 27.4684 152.862 25.4252 152.862 22.5965V21.7051L148.772 22.1248C146.421 22.349 145.156 23.3012 145.156 24.9811C145.161 26.3484 146.057 27.4684 148.185 27.4684ZM148.491 20.5519L152.86 20.1324V18.7331C152.86 17.0242 151.797 15.6525 149.387 15.68C147.399 15.68 145.832 16.5481 145.72 18.5363H143.451C143.563 15.2083 146.139 13.8872 149.384 13.8872C153.25 13.8872 155.294 15.7683 155.294 19.2077V28.9023H153.054V25.8709C152.161 27.9445 150.227 29.2293 147.454 29.2293C144.151 29.2293 142.721 27.3816 142.721 25.0578C142.724 22.3447 144.713 20.9166 148.491 20.5475V20.5519Z" fill="white"/>
<path d="M171.825 14.2244H174.092V16.9954C174.905 15.0072 176.612 13.8872 178.88 13.8872C181.12 13.8872 182.744 14.9522 183.275 17.0806C184.088 15.0361 185.85 13.8872 188.149 13.8872C190.976 13.8872 192.796 15.6525 192.796 18.9835V28.8965H190.336V19.6361C190.336 17.3383 189.324 15.9115 187.314 15.9115C185.018 15.9115 183.532 17.7318 183.532 20.7559V28.8965H181.096V19.6361C181.096 17.3397 180.06 15.913 178.045 15.913C175.748 15.913 174.293 17.7318 174.293 20.7575V28.9052H171.833L171.825 14.2244Z" fill="white"/>
<path d="M206.286 20.6372C206.23 17.5842 204.605 15.68 202.114 15.68C199.705 15.68 197.917 17.3599 197.69 20.6372H206.286ZM202.114 13.8916C206.309 13.8916 208.722 16.4396 208.722 21.9294V22.2651H197.668C197.865 25.6799 199.686 27.4452 202.317 27.4452C204.276 27.4452 205.593 26.4323 206.21 24.9247L208.534 25.0692C207.779 27.6174 205.622 29.2408 202.312 29.2408C198.083 29.2408 195.2 26.7477 195.2 21.5719C195.199 16.4078 198.11 13.8916 202.114 13.8916Z" fill="white"/>
<path d="M211.303 14.2244H213.57V17.0518C214.41 15.0636 216.23 13.8872 218.807 13.8872C221.998 13.8872 223.819 15.6236 223.819 19.2077V28.9023H221.358V19.9919C221.358 17.331 220.322 15.9044 217.97 15.9044C215.22 15.9044 213.773 17.8085 213.773 20.7488V28.8965H211.314V14.2244H211.303Z" fill="white"/>
<path d="M230.897 16.099V24.6678C230.897 26.5141 231.289 27.1032 232.778 27.1032C233.349 27.0933 233.92 27.045 234.485 26.9585V28.9233C233.774 29.0598 233.052 29.1251 232.33 29.1187C229.473 29.1187 228.437 27.9988 228.437 25.06V16.099H225.357V14.2787H227.709C228.353 14.2787 228.605 14.0269 228.605 13.4106V11.0028H230.901V14.2223H234.485V16.1034L230.897 16.099Z" fill="white"/>
<path d="M238.427 24.6106C238.624 26.5712 240.079 27.4394 242.404 27.4394C244.589 27.4394 246.043 26.6565 246.043 25.172C246.043 24.0795 245.231 23.4356 243.216 22.8192L240.05 21.896C237.782 21.2232 236.635 19.8515 236.635 17.8633C236.635 15.0346 238.958 13.8872 242.011 13.8872C245.26 13.8872 247.835 15.2039 248.114 18.228L245.875 18.3727C245.623 16.5249 244.027 15.6843 242.011 15.6843C240.218 15.6293 239.042 16.4077 239.042 17.7852C239.042 18.9602 239.883 19.6315 241.422 20.0816L244.615 21.0062C247.074 21.7065 248.477 22.9379 248.477 25.0577C248.477 27.775 246.154 29.2307 242.345 29.2307C238.762 29.2307 236.438 27.8576 236.186 24.7219L238.427 24.6106Z" fill="white"/>
<path d="M169.595 14.2521L164.135 30.6028C163.121 33.7947 162.062 34.8582 159.214 34.8582C158.766 34.8582 158.202 34.8307 157.591 34.7743V32.8715C158.095 32.899 158.627 32.9279 159.074 32.9279C160.586 32.9279 161.231 32.3679 161.904 30.241L162.323 28.9257L156.762 14.2521H159.451L163.524 25.8277L166.958 14.2521H169.595Z" fill="white"/>
<path d="M49.0249 19.5778C49.0249 14.0924 53.098 9.93674 58.6645 9.93674C63.1111 9.93674 66.5736 12.686 67.6646 16.6477H63.5899C62.7116 14.7305 60.9276 13.5585 58.637 13.5585C55.202 13.5585 52.8594 16.0892 52.8594 19.5778C52.8594 23.0665 55.202 25.5958 58.637 25.5958C60.9276 25.5958 62.7116 24.4236 63.5899 22.5065H67.6646C66.5736 26.4739 63.1111 29.2174 58.6645 29.2174C53.098 29.216 49.0249 25.0617 49.0249 19.5778Z" fill="white"/>
<path d="M73.4258 9.29532H69.6174V28.8973H73.4258V9.29532Z" fill="white"/>
<path d="M79.4345 21.5741C79.4345 23.9964 81.0855 25.5953 83.2155 25.5953C85.3454 25.5953 86.9978 24.0036 86.9978 21.5741C86.9978 19.178 85.3468 17.5532 83.2155 17.5532C81.0841 17.5532 79.4345 19.178 79.4345 21.5741ZM90.8655 21.5741C90.8655 25.9946 87.5101 29.2171 83.2228 29.2171C78.9615 29.2171 75.6074 25.9686 75.6074 21.5741C75.6074 17.1537 79.015 13.9314 83.2228 13.9314C87.4493 13.9314 90.8583 17.1537 90.8583 21.5741H90.8655Z" fill="white"/>
<path d="M106.594 14.2491V28.8951H102.785V26.8694C101.72 28.3583 100.286 29.2135 98.2606 29.2135C95.0382 29.2135 93.0414 27.0039 93.0414 23.4344V14.2477H96.8498V22.6096C96.8498 24.5268 97.5733 25.5918 99.5397 25.5918C101.644 25.5918 102.79 24.3401 102.79 21.944V14.2477H106.597L106.594 14.2491Z" fill="white"/>
<path d="M119.997 21.5742C119.997 19.178 118.372 17.5531 116.243 17.5531C114.115 17.5531 112.542 19.178 112.542 21.5742C112.542 23.9963 114.134 25.5953 116.243 25.5953C118.373 25.5953 119.997 23.9963 119.997 21.5742ZM123.804 9.29532V28.8973H119.995V26.9265C118.982 28.3113 117.438 29.217 115.39 29.217C111.581 29.217 108.706 26.0741 108.706 21.5742C108.706 17.0467 111.6 13.9314 115.362 13.9314C116.269 13.9134 117.167 14.1203 117.975 14.5336C118.783 14.9469 119.476 15.5538 119.992 16.3V9.29532H123.804Z" fill="white"/>
<path fill-rule="evenodd" clip-rule="evenodd" d="M39.3957 19.2563C39.3957 29.8919 30.774 38.5138 20.1383 38.5138C9.50263 38.5138 0.880737 29.8919 0.880737 19.2563C0.880737 8.62063 9.50263 -0.00125122 20.1383 -0.00125122C30.774 -0.00125122 39.3957 8.62063 39.3957 19.2563ZM16.0011 24.6407L28.4725 12.1694C28.7807 11.8608 29.1468 11.616 29.5498 11.4489C29.9527 11.2819 30.3847 11.1959 30.8209 11.1959C31.2571 11.1959 31.689 11.2819 32.0919 11.4489C32.495 11.616 32.861 11.8608 33.1693 12.1694C33.4778 12.4777 33.7227 12.8437 33.8898 13.2467C34.0568 13.6497 34.1428 14.0817 34.1428 14.5179C34.1428 14.9541 34.0568 15.386 33.8898 15.7889C33.7227 16.1918 33.4778 16.558 33.1693 16.8663L25.4064 24.6407C24.1585 25.8866 22.4672 26.5863 20.7037 26.5863C18.9403 26.5863 17.249 25.8866 16.0011 24.6407ZM24.2747 13.8739L11.8034 26.3453C11.4951 26.6539 11.129 26.8987 10.7261 27.0657C10.3231 27.2328 9.89121 27.3188 9.455 27.3188C9.0188 27.3188 8.58686 27.2328 8.18391 27.0657C7.78095 26.8987 7.41487 26.6539 7.10659 26.3453C6.48543 25.7215 6.13667 24.8771 6.13667 23.9969C6.13667 23.1165 6.48543 22.2722 7.10659 21.6485L14.8695 13.8739C16.1175 12.6281 17.8087 11.9283 19.5721 11.9283C21.3355 11.9283 23.0268 12.6281 24.2747 13.8739Z" fill="white"/>
</g>
</g>
<defs>
<clipPath id="clip0_8568_36">
<rect width="247.606" height="38.5165" fill="white" transform="translate(0.880737)"/>
</clipPath>
</defs>
</svg>
