<svg width="194" height="29" viewBox="0 0 194 29" fill="none" xmlns="http://www.w3.org/2000/svg">
<path d="M116.34 8.96712V12.1061H119.025C119.344 12.1061 119.734 12.1131 120.195 12.1271C120.656 12.141 121.17 12.2038 121.737 12.3154C122.145 12.3991 122.57 12.5316 123.013 12.713C123.457 12.8804 123.855 13.1176 124.21 13.4245C124.582 13.7314 124.883 14.1221 125.114 14.5964C125.362 15.0708 125.486 15.6497 125.486 16.3333C125.486 16.8635 125.397 17.3308 125.22 17.7354C125.061 18.14 124.83 18.5167 124.529 18.8655C124.121 19.3398 123.634 19.7095 123.067 19.9746C122.499 20.2257 121.914 20.414 121.312 20.5396C120.727 20.6512 120.16 20.721 119.61 20.7489C119.078 20.7628 118.644 20.7698 118.307 20.7698H114V7.20927H124.183V8.96712H116.34ZM116.34 13.6966V19.1166H118.786C119.194 19.1166 119.584 19.1026 119.956 19.0747C120.346 19.0329 120.691 18.9562 120.993 18.8445C121.595 18.6492 122.065 18.3423 122.402 17.9238C122.756 17.5052 122.934 16.9821 122.934 16.3543C122.934 15.7265 122.756 15.2033 122.402 14.7848C122.065 14.3662 121.586 14.0732 120.966 13.9058C120.629 13.8082 120.31 13.7524 120.009 13.7384C119.725 13.7105 119.371 13.6966 118.945 13.6966H116.34Z" fill="#333333"/>
<path d="M129.006 19.2631C129.219 18.8166 129.405 18.433 129.565 18.1121C129.724 17.7912 129.884 17.4843 130.043 17.1913C130.22 16.8844 130.415 16.5566 130.628 16.2078C130.841 15.859 131.116 15.4265 131.452 14.9103L136.424 7.20927H139.455V20.7698H137.142V12.6921C137.142 12.2456 137.16 11.6876 137.195 11.0179C137.249 10.3343 137.399 9.53214 137.647 8.61136L137.435 8.56951C137.186 9.21126 136.885 9.83906 136.531 10.4529C136.194 11.0668 135.76 11.7853 135.228 12.6084L129.937 20.7698H126.879V7.20927H129.192V15.0149C129.192 15.6986 129.166 16.3891 129.113 17.0867C129.059 17.7703 128.953 18.4818 128.793 19.2212L129.006 19.2631Z" fill="#333333"/>
<path d="M141.066 10.8296C140.995 10.2018 141.075 9.65072 141.306 9.17638C141.554 8.70204 141.908 8.30444 142.369 7.98356C142.848 7.66268 143.415 7.41854 144.071 7.25112C144.727 7.08371 145.436 7 146.198 7C147.013 7 147.758 7.06976 148.431 7.20927C149.123 7.34878 149.716 7.572 150.213 7.87892C150.709 8.1719 151.09 8.54858 151.356 9.00897C151.622 9.46936 151.755 10.0204 151.755 10.6622C151.755 11.3458 151.533 11.9457 151.09 12.4619C150.665 12.9781 150.08 13.3617 149.335 13.6129V13.9058C150.292 14.1151 151.019 14.5057 151.515 15.0777C152.012 15.6497 152.26 16.3473 152.26 17.1704C152.26 17.8261 152.118 18.3911 151.834 18.8655C151.551 19.3398 151.143 19.7304 150.611 20.0374C150.097 20.3443 149.468 20.5745 148.724 20.728C147.997 20.8814 147.19 20.9581 146.304 20.9581C145.4 20.9581 144.594 20.8884 143.885 20.7489C143.176 20.5954 142.591 20.3652 142.13 20.0583C141.669 19.7374 141.332 19.3328 141.119 18.8445C140.925 18.3563 140.871 17.7773 140.96 17.1076H143.326C143.22 17.568 143.238 17.9517 143.379 18.2586C143.521 18.5516 143.743 18.7887 144.044 18.9701C144.363 19.1515 144.744 19.277 145.187 19.3468C145.631 19.4165 146.109 19.4514 146.623 19.4514C147.58 19.4514 148.351 19.2631 148.936 18.8864C149.539 18.5097 149.84 17.9238 149.84 17.1285C149.84 16.3473 149.539 15.7683 148.936 15.3916C148.351 15.0149 147.625 14.8266 146.756 14.8266H144.842V13.0478H146.676C147.474 13.0478 148.112 12.8595 148.591 12.4828C149.069 12.1061 149.309 11.5481 149.309 10.8087C149.309 10.4878 149.255 10.1878 149.149 9.90882C149.043 9.6298 148.865 9.39263 148.617 9.19731C148.387 8.98804 148.077 8.8276 147.687 8.71599C147.315 8.59043 146.854 8.52765 146.304 8.52765C145.312 8.52765 144.549 8.70204 144.018 9.05082C143.504 9.3996 143.3 9.99253 143.406 10.8296H141.066Z" fill="#333333"/>
<path d="M156.249 7.20927V13.1734H164.199V7.20927H166.539V20.7698H164.199V14.9103H156.249V20.7698H153.91V7.20927H156.249Z" fill="#333333"/>
<path d="M169.152 20.7698V7.20927H179.149V8.84155H171.465V13.1525H178.431V14.7848H171.465V19.1375H179.415V20.7698H169.152Z" fill="#333333"/>
<path d="M193.244 16.3961C193.155 17.8331 192.579 18.9631 191.516 19.7862C190.47 20.5954 189.061 21 187.288 21C186.118 21 185.09 20.8326 184.204 20.4978C183.318 20.149 182.573 19.6677 181.97 19.0538C181.385 18.426 180.942 17.6866 180.641 16.8356C180.34 15.9706 180.189 15.0289 180.189 14.0105C180.189 13.006 180.34 12.0782 180.641 11.2272C180.942 10.3622 181.394 9.62282 181.997 9.00897C182.6 8.38117 183.335 7.89287 184.204 7.5441C185.09 7.19532 186.1 7.02093 187.235 7.02093C188.192 7.02093 189.043 7.13951 189.787 7.37668C190.549 7.5999 191.188 7.92078 191.702 8.33931C192.233 8.7439 192.632 9.23219 192.898 9.80419C193.164 10.3762 193.279 11.011 193.244 11.7085H190.877C190.824 10.704 190.461 9.9437 189.787 9.4275C189.131 8.91131 188.272 8.65321 187.208 8.65321C185.861 8.65321 184.771 9.1136 183.938 10.0344C183.105 10.9552 182.688 12.2805 182.688 14.0105C182.688 15.7683 183.123 17.1076 183.991 18.0284C184.86 18.9352 186.038 19.3886 187.527 19.3886C188.449 19.3886 189.229 19.1445 189.867 18.6562C190.523 18.1679 190.886 17.4145 190.957 16.3961H193.244Z" fill="#333333"/>
<path d="M0 0H29V14.5849C29 18.3238 27.0054 21.7788 23.7676 23.6485L14.5 29L5.23246 23.6485C1.99457 21.7788 0 18.3238 0 14.5849V0Z" fill="#FFFFFD"/>
<path fill-rule="evenodd" clip-rule="evenodd" d="M7.95898 7.67627V12.2125C8.57929 11.512 9.70712 11.0379 10.9966 11.0379H12.398V16.3112C12.398 17.7142 12.0168 18.9421 11.4512 19.6176H17.5468C16.9824 18.9415 16.6021 17.715 16.6021 16.3139V11.0379H18.0035C19.2931 11.0379 20.4209 11.512 21.0412 12.2125V7.67627H7.95898Z" fill="#333333"/>
<path d="M34.897 20V7.677H47.4138V10.4934H38.6293V12.2543H42.9775C46.0583 12.2543 48.3469 12.9584 48.3469 16.1269C48.3469 19.2959 46.0583 20 42.9775 20H34.897ZM38.6293 15.0707V17.183H42.995C44.2628 17.183 44.5618 16.937 44.5618 16.1269C44.5618 15.3172 44.2628 15.0707 42.995 15.0707H38.6293Z" fill="#333333"/>
<path d="M69.0087 15.4227V20H65.2764V7.677H69.0087V12.1662H75.1172V7.677H78.8496V20H75.1172V15.4227H69.0087Z" fill="#333333"/>
<path d="M84.8632 15.3522V20H81.1309V7.677H84.8632V12.2717H87.0988L90.9895 7.677H95.2144L90.3381 13.4334V13.6625L95.4609 20H90.8309L87.0813 15.3522H84.8632Z" fill="#333333"/>
<path d="M59.3354 18.1867H53.5082L52.8569 20H48.9487L53.8253 7.677H59.2122L64.0709 20H59.9868L59.3354 18.1867ZM58.332 15.3703L56.6067 10.5115H56.2897L54.5294 15.3703H58.332Z" fill="#333333"/>
<rect width="1" height="12" transform="translate(105 8)" fill="#343135"/>
</svg>
