<svg width="38" height="42" viewBox="0 0 38 42" fill="none" xmlns="http://www.w3.org/2000/svg">
<g clip-path="url(#clip0_3_2017)">
<g clip-path="url(#clip1_3_2017)">
<path d="M2 3.62061H37V21.2231C37 25.7356 34.5927 29.9054 30.685 32.1619L19.5 38.6207L8.31504 32.1619C4.40725 29.9054 2 25.7356 2 21.2231L2 3.62061Z" fill="#FFDD2D"/>
<path fill-rule="evenodd" clip-rule="evenodd" d="M11.6553 13.2756V18.7773C12.3992 17.9276 13.7518 17.3527 15.2984 17.3527H16.979V23.7482C16.979 25.4498 16.5218 26.9392 15.8436 27.7584H23.1541C22.4772 26.9383 22.0211 25.4509 22.0211 23.7515V17.3527H23.7018C25.2483 17.3527 26.601 17.9276 27.3449 18.7773V13.2756H11.6553Z" fill="#333333"/>
</g>
</g>
<defs>
<clipPath id="clip0_3_2017">
<rect width="35" height="41.0345" fill="white" transform="translate(2)"/>
</clipPath>
<clipPath id="clip1_3_2017">
<rect width="35" height="41.0345" fill="white" transform="translate(2)"/>
</clipPath>
</defs>
</svg>
