<svg width="38" height="38" viewBox="0 0 38 38" fill="none" xmlns="http://www.w3.org/2000/svg">
<path fill-rule="evenodd" clip-rule="evenodd" d="M38 19.0001C38 29.4934 29.4935 38 19.0001 38C8.50661 38 0 29.4934 0 19.0001C0 8.5066 8.50661 0 19.0001 0C29.4935 0 38 8.5066 38 19.0001ZM14.9182 24.3124L27.2228 12.0079C27.5269 11.7034 27.8881 11.4619 28.2857 11.2971C28.6833 11.1323 29.1094 11.0474 29.5398 11.0474C29.9702 11.0474 30.3963 11.1323 30.7938 11.2971C31.1915 11.4619 31.5526 11.7034 31.8568 12.0079C32.1612 12.3121 32.4028 12.6732 32.5677 13.0708C32.7325 13.4684 32.8173 13.8946 32.8173 14.325C32.8173 14.7553 32.7325 15.1815 32.5677 15.579C32.4028 15.9765 32.1612 16.3378 31.8568 16.642L24.1977 24.3124C22.9665 25.5416 21.2978 26.2321 19.5579 26.2321C17.8181 26.2321 16.1494 25.5416 14.9182 24.3124ZM23.0812 13.6897L10.7766 25.9943C10.4725 26.2987 10.1113 26.5403 9.71371 26.705C9.31615 26.8699 8.88999 26.9548 8.45961 26.9548C8.02924 26.9548 7.60308 26.8699 7.20552 26.705C6.80794 26.5403 6.44676 26.2987 6.1426 25.9943C5.52975 25.3788 5.18566 24.5457 5.18566 23.6773C5.18566 22.8087 5.52975 21.9756 6.1426 21.3603L13.8017 13.6897C15.033 12.4605 16.7017 11.7701 18.4414 11.7701C20.1812 11.7701 21.8499 12.4605 23.0812 13.6897Z" fill="white"/>
</svg>
