<svg width="86" height="86" viewBox="0 0 86 86" fill="none" xmlns="http://www.w3.org/2000/svg">
<g clip-path="url(#clip0_2492_9348)">
<path d="M0 19.2659C0 8.62491 8.61531 0 19.2395 0H67.3705C77.9946 0 86.6099 8.62491 86.6099 19.2659V67.344C86.6099 77.985 77.9946 86.6099 67.3705 86.6099H19.2395C8.61531 86.6099 0 77.985 0 67.344V19.2659Z" fill="#DFD2BD"/>
<path fill-rule="evenodd" clip-rule="evenodd" d="M19.2467 0C8.61769 0 0 8.61769 0 19.2467V40.7668H9.33222C11.1631 40.7668 12.0797 40.7668 12.9675 40.608C13.6315 40.4901 14.281 40.3049 14.9089 40.0571C15.7485 39.7251 16.5281 39.2439 18.0846 38.2792L62.9005 10.5712C65.8981 8.71635 67.397 7.79011 68.4603 6.50539C69.2519 5.55028 69.8605 4.45562 70.2599 3.27917C70.5486 2.42029 70.6809 1.50844 70.7411 0.288688C69.656 0.0986273 68.5373 0 67.397 0H19.2467Z" fill="url(#paint0_linear_2492_9348)"/>
<path fill-rule="evenodd" clip-rule="evenodd" d="M19.2465 86.5262H67.3968C77.6384 86.5262 86.0131 78.5268 86.6098 68.4343V43.2212H79.6858C77.7852 43.2212 76.8349 43.2212 75.9134 43.38C75.223 43.4979 74.5493 43.6831 73.8973 43.9309C73.0264 44.2629 72.2181 44.7441 70.6014 45.7088L24.0894 73.4192C20.9787 75.2717 19.4245 76.1979 18.3202 77.4826C17.4974 78.4402 16.8647 79.5324 16.4533 80.7089C15.9745 82.0754 15.9096 83.5766 15.9023 86.2351C16.9874 86.4275 18.1061 86.5262 19.2465 86.5262Z" fill="url(#paint1_linear_2492_9348)"/>
<path d="M19.2476 21.6528H67.3642V45.8579C67.3642 52.0577 64.0538 57.7956 58.6839 60.8919L43.3059 69.7695L27.9278 60.8919C22.558 57.7884 19.2476 52.0577 19.2476 45.8579V21.6528Z" fill="white"/>
<path fill-rule="evenodd" clip-rule="evenodd" d="M32.5986 33.7153V41.0339C33.6307 39.9007 35.5025 39.1429 37.6485 39.1429H39.9776V47.6451C39.9776 49.9042 39.34 51.889 38.4041 52.9788H48.5279C47.592 51.889 46.9545 49.9114 46.9545 47.6523V39.1429H49.2831C51.4219 39.1429 53.3011 39.9079 54.3332 41.0339V33.7153H32.5986Z" fill="#333333"/>
</g>
<defs>
<linearGradient id="paint0_linear_2492_9348" x1="5.91834" y1="36.0321" x2="70.7916" y2="-2.5381" gradientUnits="userSpaceOnUse">
<stop stop-color="#DED0BB"/>
<stop offset="1" stop-color="#CDB998"/>
</linearGradient>
<linearGradient id="paint1_linear_2492_9348" x1="83.2296" y1="47.9583" x2="17.2304" y2="88.6818" gradientUnits="userSpaceOnUse">
<stop stop-color="#DED0BB"/>
<stop offset="1" stop-color="#D5C4A9"/>
</linearGradient>
<clipPath id="clip0_2492_9348">
<rect width="86" height="86" rx="26.4615" fill="white"/>
</clipPath>
</defs>
</svg>
